<svg width="62" height="62" viewBox="0 0 62 62" fill="none" xmlns="http://www.w3.org/2000/svg">
<path d="M9.6875 43.5625V18.4375C9.6875 17.8852 10.1352 17.4375 10.6875 17.4375H51.3125C51.8648 17.4375 52.3125 17.8852 52.3125 18.4375V43.5625C52.3125 44.1148 51.8648 44.5625 51.3125 44.5625H10.6875C10.1352 44.5625 9.6875 44.1148 9.6875 43.5625Z" stroke="#FFBD4E" stroke-width="3"/>
<circle cx="31.0026" cy="30.9997" r="5.16667" stroke="#FFBD4E" stroke-width="3"/>
<path d="M19.1667 18.0833C19.1667 19.2433 18.9382 20.392 18.4943 21.4637C18.0504 22.5354 17.3997 23.5092 16.5794 24.3294C15.7592 25.1497 14.7854 25.8004 13.7137 26.2443C12.642 26.6882 11.4933 26.9167 10.3333 26.9167" stroke="#FFBD4E" stroke-width="3"/>
<path d="M42.8333 18.0833C42.8333 19.2433 43.0618 20.392 43.5057 21.4637C43.9496 22.5354 44.6003 23.5092 45.4206 24.3294C46.2408 25.1497 47.2146 25.8004 48.2863 26.2443C49.358 26.6882 50.5067 26.9167 51.6667 26.9167" stroke="#FFBD4E" stroke-width="3"/>
<path d="M19.1667 43.9167C19.1667 42.7567 18.9382 41.608 18.4943 40.5363C18.0504 39.4646 17.3997 38.4908 16.5794 37.6706C15.7592 36.8503 14.7854 36.1996 13.7137 35.7557C12.642 35.3118 11.4933 35.0833 10.3333 35.0833" stroke="#FFBD4E" stroke-width="3"/>
<path d="M42.8333 43.9167C42.8333 42.7567 43.0618 41.608 43.5057 40.5363C43.9496 39.4646 44.6003 38.4908 45.4206 37.6706C46.2408 36.8503 47.2146 36.1996 48.2863 35.7557C49.358 35.3118 50.5067 35.0833 51.6667 35.0833" stroke="#FFBD4E" stroke-width="3"/>
</svg>
