<svg width="48" height="50" viewBox="0 0 48 50" fill="none" xmlns="http://www.w3.org/2000/svg">
<path d="M13.1298 19.688L27.4164 9.41949C27.7651 9.16884 28.2349 9.16884 28.5836 9.41949L42.8702 19.688C43.4254 20.087 43.4254 20.913 42.8702 21.312L28.5836 31.5805C28.2349 31.8312 27.7651 31.8312 27.4164 31.5805L13.1298 21.312C12.5746 20.913 12.5746 20.087 13.1298 19.688Z" stroke="#FFBD4E" stroke-width="3" stroke-linecap="round" stroke-linejoin="round"/>
<path d="M14 31L27.4592 39.6524C27.7887 39.8641 28.2114 39.8641 28.5408 39.6524L42 31" stroke="#FFBD4E" stroke-width="3" stroke-linecap="round" stroke-linejoin="round"/>
<path d="M14 39L27.4592 47.6524C27.7887 47.8641 28.2114 47.8641 28.5408 47.6524L42 39" stroke="#FFBD4E" stroke-width="3" stroke-linecap="round" stroke-linejoin="round"/>
</svg>
